<svg xmlns="http://www.w3.org/2000/svg" width="253.454" height="257.272" viewBox="0 0 253.454 257.272">
  <path id="ic_add_shopping_cart_24px" d="M126.721,99.009h25.144V62.255h37.716v-24.5H151.866V1H126.721V37.753H89.005v24.5h37.716ZM76.433,209.268c-13.829,0-25.019,11.026-25.019,24.5s11.189,24.5,25.019,24.5,25.144-11.026,25.144-24.5S90.262,209.268,76.433,209.268Zm125.721,0c-13.829,0-25.019,11.026-25.019,24.5s11.189,24.5,25.019,24.5,25.144-11.026,25.144-24.5S215.984,209.268,202.154,209.268ZM78.57,169.452l.377-1.47,11.315-19.969h93.662a25.134,25.134,0,0,0,22-12.619l48.529-85.88L232.579,37.753h-.126l-13.829,24.5-34.7,61.255H95.668L94.034,120.2,65.872,62.255l-11.944-24.5-11.818-24.5H1v24.5H26.144L71.4,130.739,54.432,160.754a23.218,23.218,0,0,0-3.143,11.761c0,13.476,11.315,24.5,25.144,24.5H227.3v-24.5H81.713A3.154,3.154,0,0,1,78.57,169.452Z" transform="translate(-1 -1)" fill="rgba(0,127,0,0.41)"/>
</svg>
