<svg xmlns="http://www.w3.org/2000/svg" width="201" height="304" viewBox="0 0 201 304">
  <path id="ic_content_paste_24px" d="M181.667,27.636H134.99C130.3,11.607,118.017,0,103.5,0S76.7,11.607,72.01,27.636H25.333C13.05,27.636,3,40.073,3,55.273V276.364C3,291.564,13.05,304,25.333,304H181.667C193.95,304,204,291.564,204,276.364V55.273C204,40.073,193.95,27.636,181.667,27.636Zm-78.167,0c6.142,0,11.167,6.218,11.167,13.818S109.642,55.273,103.5,55.273,92.333,49.055,92.333,41.455,97.358,27.636,103.5,27.636Zm78.167,248.727H25.333V55.273H47.667V96.727H159.333V55.273h22.333Z" transform="translate(-3)" fill="rgba(0,127,0,0.41)"/>
</svg>
