<svg xmlns="http://www.w3.org/2000/svg" width="357.06" height="359.075" viewBox="0 0 357.06 359.075">
  <path id="ic_fingerprint_24px" d="M218.162,32.6a7.674,7.674,0,0,1-3.341-.743c-27.889-12.265-52-17.468-80.906-17.468-28.76,0-56.068,5.823-80.906,17.468a8.1,8.1,0,0,1-9.877-2.478c-1.888-2.973-.581-6.814,2.905-8.424A207.769,207.769,0,0,1,133.915,2c30.939,0,57.956,5.823,87.587,18.831,3.631,1.611,4.939,5.327,3.05,8.3a7.307,7.307,0,0,1-6.391,3.469ZM10.305,97.64a8.516,8.516,0,0,1-4.212-1.115C2.752,94.543,2.026,90.7,4.35,87.853,18.73,70.509,37.032,56.882,58.82,47.342c45.609-20.07,104-20.193,149.755-.124,21.788,9.539,40.09,23.043,54.47,40.263,2.324,2.726,1.6,6.69-1.743,8.672a8.064,8.064,0,0,1-10.168-1.487,132.511,132.511,0,0,0-49.241-36.423c-41.688-18.211-95-18.211-136.537.124A133.783,133.783,0,0,0,15.97,95.039a6.662,6.662,0,0,1-5.665,2.6Zm90.783,149.531A7.419,7.419,0,0,1,96,245.312c-12.637-10.778-19.464-17.716-29.2-32.706-10.022-15.238-15.252-33.821-15.252-53.767,0-36.794,36.894-66.775,82.213-66.775s82.213,29.98,82.213,66.775c0,3.469-3.2,6.194-7.263,6.194s-7.263-2.726-7.263-6.194c0-29.98-30.358-54.386-67.688-54.386S66.082,128.859,66.082,158.84c0,17.84,4.648,34.316,13.509,47.7,9.3,14.247,15.687,20.317,26.872,29.98a5.707,5.707,0,0,1,0,8.8,8.751,8.751,0,0,1-5.374,1.858Zm104.146-22.919c-17.285,0-32.537-3.717-45.028-11.026-21.643-12.513-34.57-32.83-34.57-54.386,0-3.469,3.2-6.194,7.263-6.194s7.263,2.726,7.263,6.194c0,17.468,10.458,33.945,28.179,44.1,10.313,5.947,22.369,8.8,36.894,8.8a112.105,112.105,0,0,0,15.106-1.239c3.922-.619,7.7,1.611,8.425,5.079.726,3.345-1.888,6.566-5.955,7.185a115.844,115.844,0,0,1-17.576,1.487Zm-29.2,25.521a9.866,9.866,0,0,1-1.888-.248c-23.1-5.451-38.2-12.76-54.034-26.016C99.781,206.288,88.6,183.369,88.6,158.84c0-20.07,20.045-36.423,44.738-36.423s44.738,16.353,44.738,36.423c0,13.256,13.508,24.034,30.213,24.034S238.5,172.1,238.5,158.84c0-46.705-47.207-84.614-105.308-84.614-41.252,0-79.017,19.574-96.012,49.926-5.665,10.035-8.57,21.8-8.57,34.688,0,9.663,1.017,24.9,9.732,44.723,1.453,3.221-.436,6.814-4.212,7.929-3.777,1.239-7.989-.5-9.3-3.593a120.216,120.216,0,0,1-10.6-49.059c0-14.866,3.341-28.37,9.877-40.139C43.423,84.137,86.272,61.713,133.189,61.713c66.09,0,119.833,43.484,119.833,97,0,20.07-20.045,36.423-44.738,36.423s-44.738-16.353-44.738-36.423c0-13.256-13.509-24.034-30.213-24.034s-30.213,10.778-30.213,24.034c0,21.185,9.587,41.006,27.162,55.873,13.8,11.645,27.017,18.087,47.5,22.919,3.922.867,6.1,4.336,5.084,7.557-.726,2.849-3.777,4.708-6.827,4.708Z" transform="translate(-3.44 204.217) rotate(-51)" fill="rgba(0,127,0,0.41)"/>
</svg>
